<svg width="1200" height="900" viewBox="0 0 1200 900" xmlns="http://www.w3.org/2000/svg">
  <defs>
    <radialGradient id="g" cx="30%" cy="20%" r="80%">
      <stop offset="0%" stop-color="#241408"/>
      <stop offset="100%" stop-color="#0E0E10"/>
    </radialGradient>
  </defs>
  <rect width="1200" height="900" fill="url(#g)"/>
  <circle cx="780" cy="814" r="2.24397719478738" fill="#F7F1E4" opacity="0.35"/><circle cx="274" cy="684" r="1.9870756172839505" fill="#F7F1E4" opacity="0.46"/><circle cx="963" cy="305" r="3.0470464677640603" fill="#F7F1E4" opacity="0.72"/><circle cx="1143" cy="467" r="2.244877400548697" fill="#F7F1E4" opacity="0.53"/><circle cx="534" cy="526" r="2.1422968106995883" fill="#F7F1E4" opacity="0.71"/><circle cx="141" cy="702" r="1.59732938957476" fill="#F7F1E4" opacity="0.46"/><circle cx="529" cy="487" r="2.9865183470507546" fill="#F7F1E4" opacity="0.63"/><circle cx="882" cy="334" r="3.5938143004115224" fill="#F7F1E4" opacity="0.32"/><circle cx="75" cy="367" r="3.666130829903978" fill="#F7F1E4" opacity="0.34"/><circle cx="937" cy="573" r="3.6355667009602195" fill="#F7F1E4" opacity="0.49"/><circle cx="920" cy="710" r="3.0082947530864197" fill="#F7F1E4" opacity="0.64"/><circle cx="364" cy="798" r="3.4201174554183815" fill="#F7F1E4" opacity="0.71"/><circle cx="767" cy="426" r="3.3586891289437584" fill="#F7F1E4" opacity="0.44"/><circle cx="246" cy="452" r="2.0524048353909468" fill="#F7F1E4" opacity="0.49"/><circle cx="609" cy="795" r="2.525955932784637" fill="#F7F1E4" opacity="0.39"/><circle cx="819" cy="646" r="3.8225522976680386" fill="#F7F1E4" opacity="0.32"/><circle cx="861" cy="160" r="2.3928112139917697" fill="#F7F1E4" opacity="0.71"/><circle cx="409" cy="59" r="2.6503129286694103" fill="#F7F1E4" opacity="0.72"/><circle cx="694" cy="33" r="1.6938228737997256" fill="#F7F1E4" opacity="0.45"/><circle cx="1165" cy="435" r="3.1961805555555554" fill="#F7F1E4" opacity="0.64"/><circle cx="565" cy="90" r="2.959855109739369" fill="#F7F1E4" opacity="0.53"/><circle cx="1190" cy="86" r="3.639167524005487" fill="#F7F1E4" opacity="0.69"/><circle cx="758" cy="77" r="3.6291795267489713" fill="#F7F1E4" opacity="0.61"/><circle cx="677" cy="588" r="2.6212491426611795" fill="#F7F1E4" opacity="0.65"/><circle cx="709" cy="505" r="3.825252914951989" fill="#F7F1E4" opacity="0.34"/><circle cx="440" cy="586" r="2.858474794238683" fill="#F7F1E4" opacity="0.44"/><circle cx="344" cy="352" r="3.3011616941015087" fill="#F7F1E4" opacity="0.43"/><circle cx="50" cy="92" r="3.9187457133058983" fill="#F7F1E4" opacity="0.76"/><circle cx="1011" cy="761" r="2.550733024691358" fill="#F7F1E4" opacity="0.48"/><circle cx="367" cy="883" r="1.6662594307270233" fill="#F7F1E4" opacity="0.68"/><circle cx="14" cy="345" r="3.0863125857338822" fill="#F7F1E4" opacity="0.76"/><circle cx="871" cy="303" r="1.8726208847736625" fill="#F7F1E4" opacity="0.56"/><circle cx="345" cy="80" r="1.8832090192043895" fill="#F7F1E4" opacity="0.75"/><circle cx="199" cy="65" r="2.9946201989026067" fill="#F7F1E4" opacity="0.70"/><circle cx="819" cy="712" r="2.4908050411522633" fill="#F7F1E4" opacity="0.50"/><circle cx="1079" cy="345" r="3.118677126200274" fill="#F7F1E4" opacity="0.47"/><circle cx="207" cy="751" r="2.8103352194787377" fill="#F7F1E4" opacity="0.39"/><circle cx="457" cy="787" r="3.571952160493827" fill="#F7F1E4" opacity="0.65"/><circle cx="968" cy="475" r="2.0393304183813443" fill="#F7F1E4" opacity="0.67"/><circle cx="837" cy="304" r="1.7001243141289437" fill="#F7F1E4" opacity="0.68"/>
  <circle cx="1080" cy="120" r="60" fill="#FFC72C" opacity="0.35"/>
  <text x="50%" y="46%" text-anchor="middle" font-family="Georgia, serif" font-size="81" fill="#F7F1E4" font-weight="700">d-stellar<tspan fill="#FFC72C"> ★</tspan></text>
  <text x="50%" y="56%" text-anchor="middle" font-family="Helvetica, Arial, sans-serif" font-size="32" letter-spacing="4" fill="#FFC72C">FACHADA · PABELLÓN NUEVO LEÓN</text>
  <text x="50%" y="94%" text-anchor="middle" font-family="Helvetica, Arial, sans-serif" font-size="22" fill="#F7F1E4" opacity="0.45">Placeholder — replace with real storefront photo</text>
</svg>